<?xml version="1.0" standalone="no"?>
<!DOCTYPE svg PUBLIC "-//W3C//DTD SVG 20010904//EN"
 "http://www.w3.org/TR/2001/REC-SVG-20010904/DTD/svg10.dtd">
<svg version="1.0" xmlns="http://www.w3.org/2000/svg"
 width="512.000000pt" height="512.000000pt" viewBox="0 0 512.000000 512.000000"
 preserveAspectRatio="xMidYMid meet">
<metadata>
Created by potrace 1.14, written by Peter Selinger 2001-2017
</metadata>
<g transform="translate(0.000000,512.000000) scale(0.100000,-0.100000)"
fill="#000000" stroke="none">
<path d="M0 2814 c0 -1268 3 -2304 7 -2302 116 56 183 86 243 108 19 7 54 21
77 31 24 11 46 19 49 19 3 0 20 6 37 14 18 8 101 38 186 66 85 29 161 56 170
60 9 5 43 18 76 29 33 11 92 31 130 45 39 14 106 35 150 47 44 11 85 24 90 29
6 4 35 15 65 25 30 10 57 21 60 24 3 4 16 11 30 17 23 10 27 21 42 117 16 102
41 161 85 206 32 32 45 61 39 88 -16 69 -40 139 -53 154 -7 8 -13 19 -13 23 0
4 -15 40 -34 79 -145 305 -153 327 -186 454 -10 40 -21 76 -24 81 -3 5 -14 58
-26 118 -11 60 -25 123 -30 139 -40 126 -70 579 -50 750 17 146 40 288 49 300
4 5 13 37 20 70 7 33 22 79 32 102 10 23 19 46 19 52 0 28 110 226 155 278 5
7 23 29 39 50 33 42 119 116 198 170 29 20 55 39 58 43 3 4 25 18 49 31 129
70 161 86 206 103 28 10 55 22 60 26 6 5 78 23 160 42 148 33 153 33 400 33
242 0 253 -1 360 -28 61 -16 124 -35 140 -42 17 -7 48 -19 70 -26 22 -7 65
-25 95 -41 30 -15 58 -28 62 -28 4 0 27 -14 50 -30 24 -17 59 -41 78 -54 53
-36 169 -145 196 -185 64 -97 92 -130 99 -123 5 4 5 2 1 -5 -6 -11 58 -149 75
-163 6 -5 44 -95 93 -220 58 -151 119 -405 132 -550 4 -48 -3 -151 -21 -290
-2 -19 -11 -102 -20 -185 -16 -149 -20 -178 -50 -307 -19 -83 -58 -151 -166
-293 -64 -85 -124 -219 -155 -350 -8 -33 -19 -68 -24 -77 -6 -10 -10 -21 -10
-25 0 -5 30 -40 68 -78 92 -97 124 -164 131 -280 l6 -89 50 -18 c28 -10 68
-27 91 -38 23 -11 44 -20 46 -20 3 0 23 -8 44 -17 22 -9 71 -27 109 -39 110
-34 367 -124 402 -140 17 -8 37 -14 43 -14 7 0 38 -11 69 -25 31 -13 99 -41
151 -61 52 -20 146 -60 208 -90 63 -30 118 -54 123 -54 5 0 9 901 9 2285 l0
2285 -2560 0 -2560 0 0 -2306z"/>
<path d="M2345 4350 c-3 -6 2 -13 12 -16 10 -3 28 -9 39 -14 12 -5 31 -6 43
-3 13 3 21 1 21 -7 0 -9 13 -11 50 -6 32 4 50 3 50 -4 0 -5 10 -10 23 -9 l22
0 -22 9 c-13 5 -23 18 -23 28 0 14 -9 21 -31 26 -53 10 -67 7 -39 -10 25 -15
25 -15 -10 -8 -19 3 -39 10 -44 15 -13 12 -83 11 -91 -1z"/>
<path d="M2160 4304 c-60 -27 -100 -60 -100 -80 0 -12 -14 -20 -95 -55 -53
-23 -129 -48 -133 -44 -6 5 -42 -40 -42 -52 0 -5 -16 -10 -37 -11 -48 -4 -53
-8 -53 -45 -1 -29 -2 -30 -14 -14 -13 17 -15 17 -30 -4 -9 -13 -34 -36 -57
-51 -52 -34 -85 -98 -128 -238 -17 -58 -40 -132 -50 -165 -32 -100 -45 -221
-45 -410 l-1 -180 32 -65 c17 -36 35 -78 38 -95 4 -16 14 -35 22 -42 9 -7 13
-19 9 -28 -5 -14 -9 -14 -42 0 -28 11 -34 12 -25 2 6 -8 7 -17 3 -21 -4 -5 0
-7 8 -6 38 6 43 -1 15 -20 -29 -19 -30 -19 -50 0 -28 26 -70 27 -60 3 4 -10
11 -52 16 -94 5 -42 19 -107 31 -145 18 -60 22 -66 29 -44 7 24 7 24 8 -5 1
-16 8 -41 16 -55 8 -14 14 -41 15 -61 0 -32 5 -38 51 -63 28 -15 61 -36 72
-47 20 -18 20 -20 3 -32 -12 -9 -18 -30 -21 -68 -3 -51 -1 -56 28 -76 23 -17
33 -19 39 -10 15 24 37 -26 38 -83 0 -30 3 -66 7 -79 5 -18 3 -22 -7 -16 -10
6 -11 2 -5 -21 4 -16 11 -45 15 -65 8 -41 73 -174 100 -204 24 -27 50 -91 50
-124 0 -15 7 -36 15 -47 16 -22 20 -74 5 -74 -5 0 -11 8 -12 18 -3 28 -19
-257 -19 -332 0 -38 5 -72 10 -75 14 -9 25 -61 13 -61 -16 0 -24 -53 -13 -81
14 -38 76 -104 172 -183 79 -65 110 -87 176 -124 13 -7 23 -17 23 -21 0 -5 10
-11 23 -14 12 -4 30 -12 41 -20 18 -13 18 -14 0 -43 -10 -16 -22 -32 -26 -35
-17 -12 -48 -116 -53 -179 -3 -36 -8 -77 -10 -92 l-4 -28 184 0 185 0 0 39 0
38 73 -4 c39 -3 85 -9 101 -14 16 -5 40 -9 52 -9 19 0 24 -5 24 -25 0 -25 1
-25 80 -25 l80 0 -7 28 c-4 15 -7 84 -6 154 l2 126 -33 39 -34 38 -27 -27
c-15 -16 -32 -28 -37 -28 -22 0 -140 -66 -164 -91 -21 -22 -24 -31 -15 -46 9
-16 10 -16 11 -1 0 34 73 35 78 1 2 -15 -2 -21 -15 -19 -10 0 -23 -11 -31 -26
-13 -27 -32 -38 -32 -18 0 6 5 10 11 10 6 0 3 7 -6 16 -10 10 -25 14 -43 10
-15 -3 -21 -3 -14 0 6 3 12 17 12 30 0 14 7 27 15 30 8 4 15 12 15 19 0 7 16
26 35 42 20 15 47 38 61 51 14 12 29 20 34 17 11 -6 75 21 119 51 22 15 29 24
19 24 -9 0 -23 -6 -30 -14 -8 -7 -29 -17 -46 -21 -18 -3 -32 -10 -32 -13 0 -4
-13 -7 -29 -8 l-30 -1 14 36 c7 20 16 62 18 94 5 55 4 59 -19 67 -14 6 -22 15
-19 20 7 11 -18 40 -34 40 -6 0 -11 -5 -11 -11 0 -5 -4 -7 -10 -4 -15 9 -12
45 3 45 15 0 37 41 37 70 0 10 14 34 30 52 17 18 30 36 30 40 0 15 94 113 107
110 7 -1 15 10 19 25 12 58 16 63 37 63 33 0 65 26 88 73 12 22 26 46 33 54
27 31 33 40 39 65 7 25 5 26 -41 31 -26 2 -57 8 -69 12 -19 6 -25 2 -34 -21
-7 -16 -11 -32 -11 -37 6 -27 -173 -46 -217 -23 -45 24 -74 34 -129 47 -47 11
-56 11 -82 -5 -30 -17 -31 -17 -110 21 -65 31 -80 42 -80 60 0 24 11 27 92 23
36 -1 114 17 133 31 6 4 39 13 75 19 97 18 120 33 120 78 0 66 -8 78 -71 106
-45 20 -69 25 -94 20 -28 -5 -40 -1 -65 19 l-30 26 48 -2 c26 0 74 5 107 12
99 22 252 -1 343 -49 35 -19 35 -19 53 5 11 13 19 32 19 43 0 12 5 24 10 27
24 15 8 142 -21 174 -11 11 -19 24 -18 28 1 5 -11 15 -27 23 -16 8 -31 18 -34
21 -10 13 -50 20 -50 10 0 -6 -7 -11 -15 -11 -8 0 -15 5 -15 10 0 6 -15 10
-34 10 -33 0 -62 20 -49 33 3 4 -1 7 -10 7 -10 0 -25 13 -36 30 -10 16 -21 27
-24 23 -4 -3 -7 -3 -7 1 0 3 16 21 35 38 51 44 61 65 39 89 -39 43 -202 101
-282 101 -18 -1 -54 8 -79 19 -24 10 -55 19 -68 19 -31 0 -38 13 -17 33 48 46
53 55 46 81 -4 18 -1 33 9 44 8 9 15 33 15 52 0 126 10 187 35 234 28 50 35
86 17 86 -5 0 -7 7 -4 15 4 11 -1 15 -17 16 -15 1 -18 3 -8 6 23 6 41 45 37
79 -3 29 -3 29 -68 27 -76 -3 -70 3 14 12 l58 7 -35 24 c-20 13 -44 24 -53 24
-22 0 -144 60 -144 71 0 5 -9 9 -20 9 -11 0 -20 4 -20 10 0 17 -60 41 -93 38
-26 -2 -31 -7 -29 -25 3 -23 -6 -27 -103 -38 -56 -7 -134 -29 -182 -52 -62
-30 -72 16 -17 77 43 47 74 105 74 137 0 13 -16 40 -36 60 -39 41 -54 71 -54
109 0 30 -30 33 -48 4 -13 -21 -56 -27 -67 -10 -3 6 -14 10 -24 10 -14 0 -20
9 -23 38 -3 20 -2 39 1 42 12 10 32 52 22 45 -6 -3 -11 1 -11 9 0 28 18 63 53
99 31 34 39 37 88 37 30 1 74 6 99 11 25 6 63 13 84 16 26 4 51 16 72 37 49
48 90 76 113 76 11 0 31 11 45 25 14 14 36 25 49 25 14 0 30 6 36 13 6 8 30
20 53 27 180 56 268 93 268 113 0 4 24 7 54 7 36 0 58 5 67 16 7 8 21 13 32
10 10 -2 37 2 59 10 111 39 253 -3 437 -129 34 -24 57 -31 100 -33 31 -1 51 0
44 3 -7 2 -9 11 -6 19 9 24 -35 98 -86 145 -55 51 -139 99 -172 99 -12 0 -37
5 -55 12 -17 6 -40 8 -50 4 -16 -7 -12 -11 23 -25 23 -9 48 -22 55 -29 6 -6
18 -12 26 -12 7 0 10 -4 7 -10 -7 -11 -58 -13 -93 -3 -18 4 -21 8 -10 15 9 6
5 8 -12 6 -14 -1 -42 7 -62 19 -49 29 -77 36 -91 24 -9 -7 -20 -6 -37 4 -85
49 -130 65 -130 45 0 -5 -12 -10 -26 -10 -14 0 -34 -5 -45 -10 -15 -9 -21 -7
-25 5 -4 10 -13 13 -26 9 -14 -4 -29 3 -49 22 -16 15 -29 24 -29 19 0 -5 -6
-2 -12 7 -17 21 -141 58 -192 58 -23 0 -66 -12 -96 -26z m-580 -854 c0 -5 -5
-10 -11 -10 -5 0 -7 5 -4 10 3 6 8 10 11 10 2 0 4 -4 4 -10z m449 -484 c-2 -2
-44 -6 -94 -9 -50 -3 -77 -1 -60 3 30 8 162 13 154 6z m58 -12 c-3 -3 -12 -4
-19 -1 -8 3 -5 6 6 6 11 1 17 -2 13 -5z m-302 -24 c-27 -12 -43 -12 -25 0 8 5
22 9 30 9 10 0 8 -3 -5 -9z m-61 -25 c-10 -8 -24 -15 -30 -15 -6 0 -19 -9 -29
-20 -10 -11 -22 -17 -27 -13 -11 6 69 61 91 62 10 1 9 -3 -5 -14z m-10 -43 c3
-5 -1 -9 -9 -9 -8 0 -12 4 -9 9 3 4 7 8 9 8 2 0 6 -4 9 -8z m632 -49 c-7 -7
-26 7 -26 19 0 6 6 6 15 -2 9 -7 13 -15 11 -17z m-710 6 c3 -5 2 -9 -3 -9 -4
-1 -30 -3 -58 -5 -33 -3 -45 -1 -35 5 8 5 17 7 21 4 4 -2 10 0 13 5 7 11 55
11 62 0z m44 -30 c0 -6 -4 -7 -10 -4 -5 3 -10 11 -10 16 0 6 5 7 10 4 6 -3 10
-11 10 -16z m-173 -31 c-3 -7 -5 -2 -5 12 0 14 2 19 5 13 2 -7 2 -19 0 -25z
m133 -158 c0 -13 -1 -13 -10 0 -5 8 -10 22 -10 30 0 13 1 13 10 0 5 -8 10 -22
10 -30z m100 -171 c78 -77 124 -94 250 -94 95 1 110 3 157 28 29 15 66 41 83
58 16 17 30 26 30 21 0 -12 -70 -76 -101 -93 -13 -7 -53 -20 -90 -29 -72 -19
-132 -15 -233 14 -76 22 -154 100 -179 178 -24 75 -20 83 8 20 14 -30 47 -76
75 -103z m610 -2131 c0 -6 3 -9 6 -5 9 9 95 -37 121 -65 22 -24 47 -77 39 -85
-2 -3 -10 6 -16 19 -18 34 -79 87 -127 110 -40 19 -56 38 -33 38 6 0 10 -5 10
-12z m370 -27 c0 -5 -13 -14 -30 -20 -32 -11 -41 2 -12 18 21 13 42 14 42 2z
m-294 -48 c24 -22 58 -80 67 -113 5 -22 2 -21 -26 13 -40 46 -57 47 -57 4 0
-50 -24 -77 -68 -77 -27 0 -42 7 -59 27 -27 31 -29 49 -7 91 24 49 91 55 138
14 18 -16 18 -16 7 5 -6 12 -16 25 -21 28 -12 8 -13 25 -2 25 5 0 18 -8 28
-17z"/>
<path d="M2318 103 c7 -3 16 -2 19 1 4 3 -2 6 -13 5 -11 0 -14 -3 -6 -6z"/>
<path d="M3295 3880 c4 -14 15 -36 25 -50 24 -31 160 -302 160 -317 0 -6 6
-13 13 -16 13 -5 25 -72 42 -237 9 -77 9 -241 0 -322 l-8 -76 34 -17 c51 -26
69 -45 69 -74 l0 -26 20 25 c11 14 20 31 20 39 0 8 11 38 25 66 28 59 43 135
27 135 -12 0 -21 122 -12 165 3 17 0 50 -7 75 -9 30 -11 62 -7 95 4 28 6 55 5
60 -2 6 -9 35 -15 65 -13 60 -40 108 -50 91 -8 -12 11 -90 26 -108 7 -9 7 -13
-1 -13 -7 0 -11 -22 -12 -57 l-1 -58 -12 75 c-7 41 -19 89 -28 105 -8 17 -21
54 -28 83 -6 28 -16 52 -21 52 -5 0 -9 5 -9 11 0 23 -33 79 -49 84 -10 3 -23
16 -29 30 -6 13 -26 32 -44 41 -18 9 -49 28 -68 43 -19 14 -39 26 -43 26 -4 0
-12 7 -18 15 -8 11 -9 9 -4 -10z"/>
<path d="M2775 3084 c-17 -7 -60 -13 -97 -14 -39 0 -68 -4 -68 -10 0 -6 -11
-20 -25 -32 -34 -29 -33 -56 3 -61 15 -2 -7 -5 -48 -7 -74 -3 -74 -3 -23 -9
51 -6 93 -32 93 -57 0 -8 9 -19 20 -26 23 -15 27 -48 5 -48 -8 0 -15 -3 -15
-7 -4 -134 -4 -186 3 -190 4 -2 5 -13 2 -23 -3 -10 1 -24 8 -32 8 -8 18 -25
22 -38 7 -23 65 -120 71 -120 4 0 -3 23 -16 55 -25 66 -31 76 -38 71 -5 -3 -9
15 -9 40 0 32 3 41 9 30 19 -35 46 0 28 35 -9 15 -15 17 -30 9 -17 -9 -20 -7
-20 15 0 14 -4 25 -10 25 -13 0 -13 63 -1 75 5 6 14 26 18 45 l10 35 13 -54
c10 -41 19 -57 41 -70 16 -9 29 -22 29 -28 0 -7 4 -13 9 -13 5 0 12 -14 16
-30 8 -38 43 -72 115 -113 61 -35 67 -35 167 -4 75 24 137 68 148 105 5 18 2
22 -16 22 -18 0 -20 3 -11 12 7 7 15 8 24 1 32 -24 49 -22 82 10 40 38 50 64
31 74 -16 10 -45 88 -45 126 0 15 -6 28 -12 28 -7 1 -23 3 -36 4 -13 1 -28 7
-34 13 -18 18 0 30 38 27 85 -8 -31 32 -131 45 -57 7 -57 8 20 5 44 -2 92 -8
106 -13 23 -9 61 0 49 11 -20 18 -95 47 -109 42 -10 -3 -24 1 -31 10 -7 8 -28
15 -47 15 -19 0 -53 4 -76 10 -70 15 -199 18 -232 4z m340 -234 c8 -13 -5 -13
-25 0 -13 8 -13 10 2 10 9 0 20 -4 23 -10z m-5 -36 c48 -19 52 -36 8 -30 -45
6 -88 23 -88 36 0 15 34 12 80 -6z m-460 -218 c0 -3 -4 -8 -10 -11 -5 -3 -10
-1 -10 4 0 6 5 11 10 11 6 0 10 -2 10 -4z"/>
<path d="M3362 2848 c19 -36 16 -203 -6 -266 -10 -29 -16 -55 -13 -58 2 -2 16
33 31 78 23 67 27 97 24 158 l-3 75 35 1 c52 2 54 3 40 19 -8 10 -31 15 -67
15 -53 0 -53 0 -41 -22z"/>
<path d="M3519 2802 c-1 -9 0 -89 0 -177 2 -141 -4 -216 -23 -344 -4 -24 -2
-31 5 -24 6 6 14 47 18 91 7 84 18 112 27 75 7 -24 52 -59 71 -55 7 2 15 -9
19 -23 7 -29 10 -30 57 -10 76 32 53 144 -35 174 -55 20 -56 21 -35 32 22 13
22 39 -1 39 -10 0 -28 -7 -41 -16 l-23 -16 6 69 c6 81 20 123 41 123 22 0 19
13 -10 44 -14 15 -25 25 -25 22 0 -3 -11 -1 -25 4 -21 8 -25 6 -26 -8z"/>
<path d="M3762 2700 c-32 -20 -33 -21 -26 -73 3 -28 12 -71 20 -95 8 -23 14
-50 15 -60 2 -50 59 168 59 226 0 28 -24 29 -68 2z"/>
<path d="M1467 2182 c-6 -10 21 -72 32 -72 5 0 11 13 13 29 3 23 -1 32 -18 40
-13 6 -25 7 -27 3z"/>
<path d="M3312 1197 c3 -56 11 -106 20 -123 30 -58 48 -105 48 -129 0 -35 24
-31 43 8 24 47 48 170 40 208 -4 23 -14 35 -35 43 -15 6 -28 16 -28 23 0 7 -7
13 -15 13 -8 0 -25 11 -37 25 -12 14 -26 25 -31 25 -6 0 -8 -37 -5 -93z"/>
<path d="M1741 1141 c-22 -31 -23 -39 -17 -118 3 -47 12 -95 18 -106 11 -19
14 -3 20 103 10 157 9 163 -21 121z"/>
<path d="M3188 673 c-40 -42 -95 -91 -116 -102 -13 -7 -21 -15 -18 -18 7 -8
49 21 98 66 34 31 65 71 56 71 -2 0 -11 -8 -20 -17z"/>
<path d="M3005 520 c-3 -5 1 -10 9 -10 8 0 18 5 21 10 3 6 -1 10 -9 10 -8 0
-18 -4 -21 -10z"/>
<path d="M2935 465 c-21 -17 -24 -23 -10 -18 23 8 63 43 49 43 -5 0 -22 -11
-39 -25z"/>
<path d="M1840 468 c0 -7 -3 -29 -6 -49 -5 -29 -2 -41 20 -64 14 -15 26 -32
26 -36 0 -9 -34 -13 -77 -10 -38 4 -34 -17 12 -55 25 -21 45 -43 45 -49 1 -18
90 -87 105 -81 14 5 31 -27 27 -50 -1 -7 9 -14 23 -17 21 -3 31 3 51 29 22 29
26 43 25 104 0 54 3 72 14 76 8 4 15 19 15 34 0 30 -2 31 -142 46 -58 6 -58 7
-58 40 0 24 -5 34 -20 39 -11 3 -23 17 -26 31 -6 25 -34 34 -34 12z"/>
</g>
</svg>
